<svg width="422" height="114" xmlns="http://www.w3.org/2000/svg" xmlns:xlink="http://www.w3.org/1999/xlink" xml:space="preserve" overflow="hidden"><g transform="translate(-1626 -477)"><path d="M412.767 0.0868337 8.60609 0.0868337C3.97529 0.0868337 0.186257 3.90061 0.186257 8.56166L0.186257 104.612C0.186257 109.273 3.97529 113.087 8.60609 113.087L412.767 113.087C417.398 113.087 421.187 109.273 421.187 104.612L421.187 8.56166C421.187 3.90061 417.398 0.0868337 412.767 0.0868337" fill="#02C75A" fill-rule="evenodd" transform="matrix(1 0 0 -1 1626 591)"/><path d="M23.1951 15.431 10.5889 33.0916 0.140554 33.0916 0.140554 0.0912491 11.0861 0.0912491 11.0861 17.7547 23.6922 0.0912491 34.1406 0.0912491 34.1406 33.0916 23.1951 33.0916Z" fill="#FFFFFF" fill-rule="evenodd" transform="matrix(1 0 0 -1 1699 551)"/><path d="M29.038-0.156119 25.64-0.156119 25.64 35.8443 29.038 35.8443ZM17.6195 35.447 20.9779 35.447 20.9779 0.750893 17.6195 0.750893 17.6195 21.4097 9.79644 21.4097 9.79644 24.3698 17.6195 24.3698ZM0.037747 9.97495 0.037747 33.1603 3.51446 33.1603 3.51446 13.0137 4.81855 13.0137C6.97739 13.0137 8.96129 13.1633 10.7648 13.4672 12.5679 13.7685 14.0495 14.0503 15.2095 14.3122L15.2095 11.4141C14.5772 11.2283 13.8408 11.0479 12.997 10.8762 12.1531 10.7016 11.253 10.5494 10.2904 10.4169 9.32823 10.2818 8.34608 10.1749 7.34688 10.0959 6.34513 10.0173 5.37169 9.97495 4.4233 9.97495Z" fill="#FFFFFF" fill-rule="evenodd" transform="matrix(1 0 0 -1 1763 551)"/><path d="M24.7305 35.8443 28.0383 35.8443 28.0383-0.156119 24.7305-0.156119ZM14.7304 20.9196C14.7304 22.387 14.6015 23.725 14.346 24.9334 14.0877 26.1385 13.7249 27.1752 13.2496 28.0398 12.7744 28.907 12.1865 29.5746 11.4805 30.048 10.7746 30.5182 9.97221 30.7547 9.07653 30.7547 8.17838 30.7547 7.37881 30.5182 6.67287 30.048 5.96693 29.5746 5.379 28.907 4.90343 28.0398 4.42821 27.1752 4.06287 26.1385 3.80742 24.9334 3.55196 23.725 3.42265 22.387 3.42265 20.9196 3.42265 19.4497 3.55196 18.1116 3.80742 16.9036 4.06287 15.6977 4.42821 14.6614 4.90343 13.7939 5.379 12.9293 5.96693 12.2562 6.67287 11.7691 7.37881 11.2848 8.17838 11.0395 9.07653 11.0395 9.97221 11.0395 10.7746 11.2848 11.4805 11.7691 12.1865 12.2562 12.7744 12.9293 13.2496 13.7939 13.7249 14.6614 14.0877 15.6977 14.346 16.9036 14.6015 18.1116 14.7304 19.4497 14.7304 20.9196M18.1153 20.9196C18.1153 18.8129 17.8845 16.9485 17.4199 15.329 16.9585 13.7124 16.3211 12.3635 15.5134 11.2819 14.7032 10.2032 13.7443 9.38634 12.6426 8.83431 11.5381 8.27938 10.3541 8.00626 9.09596 8.00626 7.83778 8.00626 6.66192 8.27938 5.56838 8.83431 4.47767 9.38634 3.51875 10.2032 2.69763 11.2819 1.87615 12.3635 1.22497 13.7124 0.752579 15.329 0.277006 16.9485 0.0381589 18.8129 0.0381589 20.9196 0.0381589 23.0237 0.277006 24.8798 0.752579 26.4877 1.22497 28.0931 1.87615 29.4369 2.69763 30.5156 3.51875 31.5944 4.47767 32.4108 5.56838 32.9628 6.66192 33.5152 7.83778 33.7909 9.09596 33.7909 10.3541 33.7909 11.5381 33.5152 12.6426 32.9628 13.7443 32.4108 14.7032 31.5944 15.5134 30.5156 16.3211 29.4369 16.9585 28.0931 17.4199 26.4877 17.8845 24.8798 18.1153 23.0237 18.1153 20.9196" fill="#FFFFFF" fill-rule="evenodd" transform="matrix(1 0 0 -1 1797 551)"/><path d="M12.8541 21.3336 3.52078 21.3336 3.52078 12.5406 12.8541 12.5406ZM16.1765 23.1842 24.6396 23.1842 24.6396 35.8443 28.0409 35.8443 28.0409-0.156119 24.6396-0.156119 24.6396 20.2295 16.1765 20.2295 16.1765 9.66235 0.04069 9.66235 0.0802902 33.1233 3.56038 33.1233 3.56038 24.2122 12.8148 24.2122 12.8148 33.1233 16.1765 33.1233Z" fill="#FFFFFF" fill-rule="evenodd" transform="matrix(1 0 0 -1 1831 551)"/><path d="M5.60117 9.282 5.60117 20.03 24.4304 20.03 24.4304 25.1704 5.56229 25.1704 5.56229 28.0914 27.7694 28.0914 27.7694 17.2654 8.93976 17.2654 8.93976 12.1246 28.9342 12.1246 28.9342 9.282 18.4127 9.282 18.4127 2.93421 33.1658 2.93421 33.1658 0.0915822 0.165842 0.0915822 0.165842 2.93421 14.9186 2.93421 14.9186 9.282Z" fill="#FFFFFF" fill-rule="evenodd" transform="matrix(1 0 0 -1 1872 546)"/><path d="M24.5842 24.9769 5.22714 24.9769 5.22714 28.097 28.0046 28.097C27.9518 26.0943 27.8575 24.0046 27.7157 21.8281 27.5772 19.6486 27.3965 17.4632 27.1801 15.2722 26.9605 13.0812 26.7109 10.9423 26.4303 8.86115 26.1471 6.77438 25.864 4.84097 25.5837 3.05534L33.1742 3.05534 33.1742 0.0971544 0.17425 0.0971544 0.17425 3.05534 22.1744 3.05534C22.821 6.37795 23.3652 9.93804 23.8069 13.7327 24.2454 17.5269 24.5064 21.275 24.5842 24.9769" fill="#FFFFFF" fill-rule="evenodd" transform="matrix(1 0 0 -1 1906 546)"/><path d="M28.2302 9.03508 24.9347 9.03508 24.9347 34.8456 28.2302 34.8456ZM29.0444-0.154836 6.13155-0.154836 6.13155 10.9121 9.54316 10.9121 9.54316 2.77806 29.0444 2.77806ZM3.61141 24.228C3.61141 23.3705 3.7471 22.5687 4.01849 21.8286 4.28988 21.0886 4.67773 20.4599 5.18169 19.9404 5.68565 19.4209 6.28648 19.01 6.98454 18.7114 7.68225 18.4125 8.4576 18.2616 9.31059 18.2616 10.1636 18.2616 10.9389 18.4125 11.6366 18.7114 12.3347 19.01 12.9355 19.4209 13.4395 19.9404 13.9434 20.4599 14.3366 21.0886 14.6219 21.8286 14.9043 22.5687 15.0486 23.3705 15.0486 24.228 15.0486 25.1358 14.9043 25.9682 14.6219 26.7226 14.3366 27.4738 13.9434 28.1248 13.4395 28.6723 12.9355 29.2169 12.3347 29.6387 11.6366 29.9375 10.9389 30.2368 10.1636 30.3873 9.31059 30.3873 8.4576 30.3873 7.68225 30.2368 6.98454 29.9375 6.28648 29.6387 5.68565 29.2169 5.18169 28.6723 4.67773 28.1248 4.28988 27.4738 4.01849 26.7226 3.7471 25.9682 3.61141 25.1358 3.61141 24.228M0.0445193 24.2057C0.0445193 25.5102 0.277088 26.7226 0.739733 27.8456 1.20487 28.9658 1.85022 29.9293 2.67543 30.7394 3.50064 31.5466 4.46724 32.1778 5.57773 32.6333 6.68537 33.0914 7.89808 33.3202 9.21371 33.3202 10.529 33.3202 11.7531 33.0914 12.8885 32.6333 14.0239 32.1778 15.0041 31.5466 15.8293 30.7394 16.6548 29.9293 17.2998 28.9658 17.7653 27.8456 18.2276 26.7226 18.4602 25.5102 18.4602 24.2057 18.4602 22.9293 18.2276 21.7449 17.7653 20.647 17.2998 19.5521 16.6548 18.608 15.8293 17.8147 15.0041 17.0183 14.0239 16.3928 12.8885 15.9348 11.7531 15.4793 10.529 15.2504 9.21371 15.2504 7.89808 15.2504 6.68537 15.4793 5.57773 15.9348 4.46724 16.3928 3.50064 17.0183 2.67543 17.8147 1.85022 18.608 1.20487 19.5521 0.739733 20.647 0.277088 21.7449 0.0445193 22.9293 0.0445193 24.2057" fill="#FFFFFF" fill-rule="evenodd" transform="matrix(1 0 0 -1 1941 550)"/></g></svg>